HIERARCHY
ROOT mixamorig:Hips
{
	OFFSET 0.000000 104.274902 0.000000
	CHANNELS 6 Xposition Yposition Zposition Xrotation Yrotation Zrotation
	JOINT mixamorig:Spine
	{
		OFFSET 0.000000 10.181549 0.131524
		CHANNELS 6 Xposition Yposition Zposition Xrotation Yrotation Zrotation
		JOINT mixamorig:Spine1
		{
			OFFSET 0.000000 9.893990 -1.470706
			CHANNELS 3 Xrotation Yrotation Zrotation
			JOINT mixamorig:Spine2
			{
				OFFSET 0.000000 9.220787 -1.370637
				CHANNELS 3 Xrotation Yrotation Zrotation
				JOINT mixamorig:Neck
				{
					OFFSET 0.000000 16.740372 -2.049022
					CHANNELS 6 Xposition Yposition Zposition Xrotation Yrotation Zrotation
					JOINT mixamorig:Head
					{
						OFFSET 0.000000 9.617859 1.684976
						CHANNELS 6 Xposition Yposition Zposition Xrotation Yrotation Zrotation
						JOINT mixamorig:HeadTop_End
						{
							OFFSET 0.000000 22.037384 7.501072
							CHANNELS 6 Xposition Yposition Zposition Xrotation Yrotation Zrotation
							End Site
							{
								OFFSET 0.000000 23.106567 -2.828246
							}
						}
					}
				}
				JOINT mixamorig:RightShoulder
				{
					OFFSET -4.570000 11.014877 -2.160840
					CHANNELS 6 Xposition Yposition Zposition Xrotation Yrotation Zrotation
					JOINT mixamorig:RightArm
					{
						OFFSET -10.592867 -0.524796 -2.232105
						CHANNELS 3 Xrotation Yrotation Zrotation
						JOINT mixamorig:RightForeArm
						{
							OFFSET -27.841497 0.000000 -0.000002
							CHANNELS 3 Xrotation Yrotation Zrotation
							JOINT mixamorig:RightHand
							{
								OFFSET -28.328812 0.000000 -0.000001
								CHANNELS 3 Xrotation Yrotation Zrotation
								JOINT mixamorig:RightHandThumb1
								{
									OFFSET -2.464798 -1.573990 2.681911
									CHANNELS 6 Xposition Yposition Zposition Xrotation Yrotation Zrotation
									JOINT mixamorig:RightHandThumb2
									{
										OFFSET -3.244781 -1.873383 1.873376
										CHANNELS 3 Xrotation Yrotation Zrotation
										JOINT mixamorig:RightHandThumb3
										{
											OFFSET -2.646263 -1.527817 1.527818
											CHANNELS 6 Xposition Yposition Zposition Xrotation Yrotation Zrotation
											JOINT mixamorig:RightHandThumb4
											{
												OFFSET -1.994591 -1.151581 1.151575
												CHANNELS 6 Xposition Yposition Zposition Xrotation Yrotation Zrotation
												End Site
												{
													OFFSET -1.860176 -1.142715 1.365483
												}
											}
										}
									}
								}
								JOINT mixamorig:RightHandIndex1
								{
									OFFSET -9.108299 -0.517883 2.259803
									CHANNELS 6 Xposition Yposition Zposition Xrotation Yrotation Zrotation
									JOINT mixamorig:RightHandIndex2
									{
										OFFSET -3.699997 0.000000 0.000000
										CHANNELS 3 Xrotation Yrotation Zrotation
										JOINT mixamorig:RightHandIndex3
										{
											OFFSET -2.850006 0.000000 0.000000
											CHANNELS 3 Xrotation Yrotation Zrotation
											JOINT mixamorig:RightHandIndex4
											{
												OFFSET -2.772194 0.000000 0.000000
												CHANNELS 3 Xrotation Yrotation Zrotation
												End Site
												{
													OFFSET -2.772202 0.000000 -0.000484
												}
											}
										}
									}
								}
								JOINT mixamorig:RightHandMiddle1
								{
									OFFSET -9.532501 0.000000 -0.000000
									CHANNELS 6 Xposition Yposition Zposition Xrotation Yrotation Zrotation
									JOINT mixamorig:RightHandMiddle2
									{
										OFFSET -3.699997 0.000000 0.000000
										CHANNELS 3 Xrotation Yrotation Zrotation
										JOINT mixamorig:RightHandMiddle3
										{
											OFFSET -2.949997 0.000000 0.000000
											CHANNELS 3 Xrotation Yrotation Zrotation
											JOINT mixamorig:RightHandMiddle4
											{
												OFFSET -2.946594 0.000000 0.000000
												CHANNELS 3 Xrotation Yrotation Zrotation
												End Site
												{
													OFFSET -2.946602 0.000000 -0.000982
												}
											}
										}
									}
								}
								JOINT mixamorig:RightHandRing1
								{
									OFFSET -9.103600 -0.043106 -1.865100
									CHANNELS 6 Xposition Yposition Zposition Xrotation Yrotation Zrotation
									JOINT mixamorig:RightHandRing2
									{
										OFFSET -3.379303 0.000000 0.000000
										CHANNELS 3 Xrotation Yrotation Zrotation
										JOINT mixamorig:RightHandRing3
										{
											OFFSET -2.889694 0.000000 0.000000
											CHANNELS 3 Xrotation Yrotation Zrotation
											JOINT mixamorig:RightHandRing4
											{
												OFFSET -2.638802 0.000000 0.000000
												CHANNELS 3 Xrotation Yrotation Zrotation
												End Site
												{
													OFFSET -2.638802 0.000000 0.004218
												}
											}
										}
									}
								}
								JOINT mixamorig:RightHandPinky1
								{
									OFFSET -8.076698 -0.486725 -3.806299
									CHANNELS 6 Xposition Yposition Zposition Xrotation Yrotation Zrotation
									JOINT mixamorig:RightHandPinky2
									{
										OFFSET -3.600006 0.000000 0.000000
										CHANNELS 3 Xrotation Yrotation Zrotation
										JOINT mixamorig:RightHandPinky3
										{
											OFFSET -2.099998 0.000000 0.000000
											CHANNELS 3 Xrotation Yrotation Zrotation
											JOINT mixamorig:RightHandPinky4
											{
												OFFSET -2.115791 0.000000 0.000000
												CHANNELS 3 Xrotation Yrotation Zrotation
												End Site
												{
													OFFSET -2.115799 0.000000 0.000174
												}
											}
										}
									}
								}
							}
						}
					}
				}
				JOINT mixamorig:LeftShoulder
				{
					OFFSET 4.570400 11.014679 -2.160816
					CHANNELS 6 Xposition Yposition Zposition Xrotation Yrotation Zrotation
					JOINT mixamorig:LeftArm
					{
						OFFSET 10.592373 -0.524597 -2.232116
						CHANNELS 3 Xrotation Yrotation Zrotation
						JOINT mixamorig:LeftForeArm
						{
							OFFSET 27.841488 0.000000 0.000001
							CHANNELS 3 Xrotation Yrotation Zrotation
							JOINT mixamorig:LeftHand
							{
								OFFSET 28.328808 0.000000 -0.000000
								CHANNELS 3 Xrotation Yrotation Zrotation
								JOINT mixamorig:LeftHandThumb1
								{
									OFFSET 2.466103 -1.576202 2.681698
									CHANNELS 6 Xposition Yposition Zposition Xrotation Yrotation Zrotation
									JOINT mixamorig:LeftHandThumb2
									{
										OFFSET 3.243317 -1.872528 1.872530
										CHANNELS 3 Xrotation Yrotation Zrotation
										JOINT mixamorig:LeftHandThumb3
										{
											OFFSET 2.647881 -1.528763 1.528754
											CHANNELS 6 Xposition Yposition Zposition Xrotation Yrotation Zrotation
											JOINT mixamorig:LeftHandThumb4
											{
												OFFSET 1.998924 -1.154083 1.154080
												CHANNELS 6 Xposition Yposition Zposition Xrotation Yrotation Zrotation
												End Site
												{
													OFFSET 1.884041 -1.149155 1.337651
												}
											}
										}
									}
								}
								JOINT mixamorig:LeftHandIndex1
								{
									OFFSET 9.109299 -0.518005 2.259900
									CHANNELS 6 Xposition Yposition Zposition Xrotation Yrotation Zrotation
									JOINT mixamorig:LeftHandIndex2
									{
										OFFSET 3.699997 0.000000 0.000000
										CHANNELS 3 Xrotation Yrotation Zrotation
										JOINT mixamorig:LeftHandIndex3
										{
											OFFSET 2.850006 0.000000 0.000000
											CHANNELS 3 Xrotation Yrotation Zrotation
											JOINT mixamorig:LeftHandIndex4
											{
												OFFSET 2.774895 0.000000 0.000000
												CHANNELS 3 Xrotation Yrotation Zrotation
												End Site
												{
													OFFSET 2.774902 0.000000 -0.000072
												}
											}
										}
									}
								}
								JOINT mixamorig:LeftHandMiddle1
								{
									OFFSET 9.533401 0.000000 0.000000
									CHANNELS 6 Xposition Yposition Zposition Xrotation Yrotation Zrotation
									JOINT mixamorig:LeftHandMiddle2
									{
										OFFSET 3.699997 0.000000 0.000000
										CHANNELS 3 Xrotation Yrotation Zrotation
										JOINT mixamorig:LeftHandMiddle3
										{
											OFFSET 2.949997 0.000000 0.000000
											CHANNELS 3 Xrotation Yrotation Zrotation
											JOINT mixamorig:LeftHandMiddle4
											{
												OFFSET 2.952896 0.000000 0.000000
												CHANNELS 3 Xrotation Yrotation Zrotation
												End Site
												{
													OFFSET 2.952904 0.000000 0.000165
												}
											}
										}
									}
								}
								JOINT mixamorig:LeftHandRing1
								{
									OFFSET 9.104500 -0.042999 -1.865101
									CHANNELS 6 Xposition Yposition Zposition Xrotation Yrotation Zrotation
									JOINT mixamorig:LeftHandRing2
									{
										OFFSET 3.149994 0.000000 0.000000
										CHANNELS 3 Xrotation Yrotation Zrotation
										JOINT mixamorig:LeftHandRing3
										{
											OFFSET 2.950005 0.000000 0.000000
											CHANNELS 3 Xrotation Yrotation Zrotation
											JOINT mixamorig:LeftHandRing4
											{
												OFFSET 2.644302 0.000000 0.000000
												CHANNELS 3 Xrotation Yrotation Zrotation
												End Site
												{
													OFFSET 2.644302 0.000000 0.000083
												}
											}
										}
									}
								}
								JOINT mixamorig:LeftHandPinky1
								{
									OFFSET 8.077805 -0.486893 -3.806302
									CHANNELS 6 Xposition Yposition Zposition Xrotation Yrotation Zrotation
									JOINT mixamorig:LeftHandPinky2
									{
										OFFSET 3.600006 0.000000 0.000000
										CHANNELS 3 Xrotation Yrotation Zrotation
										JOINT mixamorig:LeftHandPinky3
										{
											OFFSET 2.099998 0.000000 0.000000
											CHANNELS 3 Xrotation Yrotation Zrotation
											JOINT mixamorig:LeftHandPinky4
											{
												OFFSET 2.125496 0.000000 0.000000
												CHANNELS 3 Xrotation Yrotation Zrotation
												End Site
												{
													OFFSET 2.125504 0.000000 -0.001254
												}
											}
										}
									}
								}
							}
						}
					}
				}
			}
		}
	}
	JOINT mixamorig:RightUpLeg
	{
		OFFSET -8.207800 -6.751701 -1.599544
		CHANNELS 6 Xposition Yposition Zposition Xrotation Yrotation Zrotation
		JOINT mixamorig:RightLeg
		{
			OFFSET 0.000004 -44.370152 0.345934
			CHANNELS 3 Xrotation Yrotation Zrotation
			JOINT mixamorig:RightFoot
			{
				OFFSET 0.000004 -44.423664 -3.043535
				CHANNELS 3 Xrotation Yrotation Zrotation
				JOINT mixamorig:RightToeBase
				{
					OFFSET 0.000001 -8.728691 10.710592
					CHANNELS 3 Xrotation Yrotation Zrotation
					JOINT mixamorig:RightToe_End
					{
						OFFSET 0.000000 -0.000665 9.278101
						CHANNELS 3 Xrotation Yrotation Zrotation
						End Site
						{
							OFFSET 0.000000 -0.000665 9.278103
						}
					}
				}
			}
		}
	}
	JOINT mixamorig:LeftUpLeg
	{
		OFFSET 8.207800 -6.751701 -1.599544
		CHANNELS 6 Xposition Yposition Zposition Xrotation Yrotation Zrotation
		JOINT mixamorig:LeftLeg
		{
			OFFSET 0.000004 -44.370037 0.346940
			CHANNELS 3 Xrotation Yrotation Zrotation
			JOINT mixamorig:LeftFoot
			{
				OFFSET 0.000004 -44.423611 -3.044388
				CHANNELS 3 Xrotation Yrotation Zrotation
				JOINT mixamorig:LeftToeBase
				{
					OFFSET 0.000001 -8.728690 10.710592
					CHANNELS 3 Xrotation Yrotation Zrotation
					JOINT mixamorig:LeftToe_End
					{
						OFFSET 0.000000 -0.000680 9.278101
						CHANNELS 3 Xrotation Yrotation Zrotation
						End Site
						{
							OFFSET 0.000000 -0.000680 9.278101
						}
					}
				}
			}
		}
	}
}
MOTION
Frames: 4
Frame Time: 0.033333
-0.948669 96.912422 0.955053 -6.084919 -43.010811 -4.192806 0.000000 10.181563 0.131524 5.819261 4.639440 -1.063169 11.836148 9.038377 -3.081386 11.836146 9.038380 -3.081384 -0.000000 16.740374 -2.049017 -4.303066 -1.272957 0.206309 0.000002 9.617837 1.684980 -6.271936 20.437803 -0.377163 0.000000 22.037354 7.501075 -0.000001 0.000000 0.000000 -4.570001 11.014852 -2.160837 1.410925 9.461496 9.792740 1.111278 -24.435258 60.320857 -7.007906 41.772706 8.690817 6.561463 12.319933 11.497998 -2.464787 -1.574007 2.681911 -8.895840 -4.903169 -0.383726 7.904795 -19.192488 -2.856891 -2.646266 -1.527804 1.527819 0.000019 0.000013 -0.000005 -1.994598 -1.151585 1.151578 0.000002 -0.000005 -0.000000 -9.108298 -0.517885 2.259804 -1.085588 -1.215445 4.525294 0.142103 -1.115513 16.942658 -0.000000 0.000001 0.000002 -0.000001 0.000001 0.000000 -9.532498 -0.000008 0.000002 -0.663685 -2.903860 12.731573 -0.660609 1.813501 30.578993 -0.000002 -0.000001 0.000001 -0.000000 0.000001 0.000002 -9.103580 -0.043115 -1.865097 2.423561 -7.404520 21.763167 -0.989725 3.764381 37.431045 0.000000 0.000000 0.000001 0.000001 -0.000000 0.000004 -8.076688 -0.486746 -3.806300 3.480961 -10.055060 24.322582 -1.458358 7.872100 41.091849 0.000001 0.000000 0.000003 0.000001 -0.000001 0.000002 4.570402 11.014679 -2.160809 1.392451 -0.696074 -7.877893 -14.241761 2.368543 -64.018830 10.466018 -47.320435 7.633449 16.278919 0.618568 18.098838 2.466105 -1.576206 2.681698 9.163645 4.814208 -5.499017 -0.334137 0.035365 0.784149 2.647882 -1.528745 1.528758 0.000002 0.000002 0.000009 1.998924 -1.154104 1.154073 -0.000003 0.000004 0.000003 9.109294 -0.518006 2.259900 -0.902011 -6.980966 -3.808390 0.031274 0.797067 -16.418007 -0.000002 0.000001 -0.000001 -0.000001 0.000001 -0.000000 9.533403 -0.000006 0.000002 1.947847 9.683078 -14.539748 -0.456433 -1.565407 -21.880996 -0.000000 -0.000000 0.000003 -0.000002 -0.000001 0.000000 9.104506 -0.042996 -1.865103 2.605846 14.896847 -31.345207 -0.572639 -2.705577 -32.011836 0.000001 -0.000000 -0.000002 0.000000 -0.000001 -0.000000 8.077799 -0.486892 -3.806300 4.170560 18.495075 -34.987306 -0.706796 -5.788566 -39.372888 -0.000021 -0.000008 0.000011 0.000004 0.000000 -0.000001 -8.207800 -6.751705 -1.599545 -5.586472 -14.384394 -14.457986 33.036191 -9.045465 -1.579535 -20.122149 -3.748366 16.670062 -1.784963 -0.356679 0.333177 0.000000 0.000001 0.000000 8.207800 -6.751700 -1.599545 -25.738403 6.208403 13.243573 33.906804 -15.073572 0.134549 -5.525198 1.806381 -7.319153 -2.319076 -3.216981 0.802956 0.000000 -0.000001 0.000000 
-0.581344 95.982269 -0.597906 -2.815624 -38.950103 -4.161591 0.000000 10.181541 0.131523 5.935357 4.138202 -0.606496 12.028912 7.969579 -2.312615 12.028910 7.969561 -2.312612 0.000000 16.740362 -2.049017 -3.504940 -0.982137 -0.857572 -0.000001 9.617846 1.684979 -9.589697 15.930019 1.362803 0.000000 22.037369 7.501074 -0.000001 -0.000000 0.000000 -4.570003 11.014894 -2.160843 -0.113144 13.459322 10.423916 -7.306350 -14.527655 56.675329 1.795052 37.310636 0.977706 11.840470 7.431499 -0.041949 -2.464794 -1.573990 2.681908 -9.409717 -3.024954 0.153050 10.987019 -15.845803 -3.791968 -2.646261 -1.527806 1.527816 0.000017 0.000015 -0.000004 -1.994587 -1.151582 1.151577 0.000001 -0.000007 0.000001 -9.108290 -0.517871 2.259803 -2.900013 -0.611515 3.416913 -0.169999 -1.529837 15.468084 0.000000 -0.000000 0.000001 -0.000000 0.000001 0.000000 -9.532495 -0.000001 0.000000 -2.166978 -2.263904 11.625047 -1.271687 1.547313 31.612117 0.000000 -0.000001 -0.000000 0.000000 0.000000 0.000003 -9.103588 -0.043120 -1.865101 1.545942 -5.885224 20.778615 -0.620755 4.026796 36.664824 0.000001 0.000000 0.000002 -0.000000 -0.000001 0.000001 -8.076707 -0.486749 -3.806298 2.430475 -6.689851 28.959247 -0.896201 8.469645 38.465067 0.000001 0.000000 -0.000001 0.000000 -0.000000 0.000001 4.570405 11.014691 -2.160819 1.896270 -2.723832 -8.493110 -21.119894 -7.026333 -55.096875 7.271819 -29.212822 2.532076 13.534646 -6.769559 15.564143 2.466102 -1.576216 2.681698 7.651373 1.504608 -2.449112 -0.384589 0.082429 0.628274 2.647883 -1.528745 1.528750 0.000004 -0.000003 0.000009 1.998913 -1.154092 1.154070 0.000002 -0.000004 -0.000002 9.109310 -0.518020 2.259900 0.352218 -8.930991 3.163293 -0.244267 0.757036 -17.437318 0.000001 -0.000000 0.000000 0.000001 -0.000001 0.000001 9.533409 -0.000003 0.000001 0.674087 8.019811 -8.548883 -0.520198 -0.831830 -16.117442 0.000000 0.000002 0.000001 -0.000003 0.000001 -0.000002 9.104511 -0.042988 -1.865104 1.137390 14.782271 -24.217634 -0.284857 -2.549061 -27.496067 0.000001 -0.000000 -0.000001 0.000001 0.000000 -0.000000 8.077823 -0.486890 -3.806301 2.279947 19.877362 -30.260501 -0.369116 -5.860989 -30.541208 -0.000025 -0.000010 0.000009 -0.000003 0.000000 -0.000000 -8.207802 -6.751711 -1.599543 -9.889573 -17.539840 -12.933771 38.518794 -4.099229 -1.261806 -22.034458 -3.652751 10.907962 -4.805998 -2.039650 2.463362 -0.000000 -0.000003 -0.000000 8.207798 -6.751709 -1.599543 -31.815236 3.750961 14.082612 37.927866 -15.125693 1.636726 -5.757203 2.138751 -9.675413 -2.462122 -3.508936 1.019269 0.000000 0.000002 0.000000 
-0.020047 94.171455 -1.780819 2.663520 -35.858944 -4.652922 -0.000000 10.181551 0.131524 5.948322 3.742635 -0.161247 12.047689 6.951257 -1.839140 12.047694 6.951253 -1.839136 -0.000000 16.740381 -2.049016 -2.724783 -0.577666 -1.532153 -0.000001 9.617866 1.684978 -13.323122 11.449508 3.320542 -0.000001 22.037384 7.501072 -0.000001 -0.000000 -0.000000 -4.570002 11.014883 -2.160830 -0.538562 17.801064 10.032861 -16.709540 -6.810457 49.477679 5.375989 28.631168 -2.326509 10.035855 2.507464 -5.141580 -2.464780 -1.574014 2.681910 -10.131233 -1.068700 0.577348 14.364042 -12.235371 -5.146717 -2.646258 -1.527805 1.527810 0.000014 0.000013 -0.000002 -1.994597 -1.151570 1.151578 0.000001 -0.000003 -0.000000 -9.108296 -0.517874 2.259804 -4.393699 0.743164 2.814409 -0.494730 -1.972968 13.515160 0.000000 0.000000 0.000001 -0.000000 -0.000000 0.000001 -9.532497 0.000021 -0.000002 -3.655370 -1.197888 10.903923 -1.927143 1.220857 32.514115 -0.000002 -0.000002 -0.000001 -0.000001 0.000000 0.000001 -9.103594 -0.043107 -1.865101 0.478255 -4.405006 20.226096 -0.186860 4.279198 35.559420 0.000001 0.000000 0.000003 0.000000 0.000000 0.000000 -8.076675 -0.486722 -3.806298 0.496048 -3.805372 34.421712 -0.201106 9.003408 35.197351 0.000000 0.000000 0.000000 -0.000001 0.000001 -0.000001 4.570401 11.014703 -2.160807 2.637457 -3.797315 -8.481209 -21.208613 -9.570949 -45.815662 4.113539 -20.953294 -0.841308 7.340145 -10.268880 13.322162 2.466091 -1.576208 2.681695 6.361806 -1.370691 0.820672 -0.431508 0.207308 0.484637 2.647901 -1.528745 1.528759 0.000003 0.000002 0.000007 1.998916 -1.154094 1.154075 -0.000000 -0.000001 0.000003 9.109298 -0.518009 2.259902 1.245975 -9.960443 6.834447 -0.594690 0.604809 -19.638001 0.000003 -0.000001 0.000002 0.000003 -0.000001 -0.000000 9.533396 -0.000003 0.000001 -0.127348 5.671592 -5.450177 -0.770004 -0.469956 -13.539322 0.000001 -0.000000 0.000005 0.000004 -0.000001 0.000001 9.104497 -0.042995 -1.865103 -0.001789 13.041138 -20.067038 -0.047115 -2.484237 -25.160706 0.000001 0.000000 -0.000001 0.000002 0.000000 0.000001 8.077806 -0.486897 -3.806303 0.316141 18.996682 -27.756232 -0.054435 -5.886597 -24.646266 -0.000018 -0.000010 0.000010 -0.000002 0.000001 0.000001 -8.207802 -6.751718 -1.599543 -16.905987 -19.740900 -9.678349 46.055102 -0.606483 -2.219962 -22.275112 -3.307200 6.344247 -7.832560 -4.188274 5.391353 0.000000 0.000001 0.000000 8.207801 -6.751699 -1.599548 -41.680386 0.877398 16.277852 45.418009 -14.597045 2.593725 -5.345486 1.778370 -8.644001 -2.570450 -3.581113 1.080486 -0.000000 0.000002 0.000000 
0.367698 91.644661 -2.707872 11.204910 -33.921950 -2.732134 -0.000001 10.181546 0.131524 5.574015 3.499491 -0.150123 11.282931 6.232994 -1.797140 11.282935 6.232998 -1.797142 0.000001 16.740362 -2.049020 -2.972716 -0.377762 -1.769876 0.000001 9.617825 1.684960 -17.296993 6.760374 5.070477 0.000001 22.037399 7.501066 -0.000002 0.000000 -0.000000 -4.569999 11.014867 -2.160841 -0.113671 21.225491 8.331836 -21.027081 -6.378675 41.100045 6.225547 23.714950 -2.958492 5.908008 -4.580482 -4.780063 -2.464793 -1.573987 2.681908 -9.835104 0.430974 1.372786 17.488383 -8.959761 -6.719123 -2.646254 -1.527795 1.527813 0.000019 0.000015 -0.000004 -1.994594 -1.151585 1.151579 -0.000002 -0.000005 0.000001 -9.108295 -0.517871 2.259802 -5.258791 1.902540 4.575828 -0.849763 -2.173832 13.619663 -0.000000 0.000000 0.000002 0.000001 -0.000000 0.000001 -9.532499 -0.000001 -0.000002 -4.859528 -0.063343 12.844702 -2.587151 0.979127 34.538972 -0.000002 -0.000003 -0.000001 0.000000 -0.000000 0.000000 -9.103601 -0.043110 -1.865103 -0.845483 -2.658723 22.350874 0.145043 4.618377 36.106849 -0.000001 0.000000 0.000002 -0.000001 0.000001 -0.000001 -8.076708 -0.486729 -3.806302 -2.315436 -1.517578 40.397389 0.381116 9.589565 34.574636 0.000001 0.000000 0.000002 0.000001 0.000000 0.000002 4.570401 11.014688 -2.160814 3.539195 -3.911655 -7.507221 -14.267565 -2.556864 -37.324597 2.041898 -23.485457 -5.512500 0.306427 -7.514335 11.954288 2.466092 -1.576195 2.681694 5.523452 -3.252263 3.842602 0.009988 1.352088 0.517623 2.647868 -1.528756 1.528754 0.000004 -0.000001 0.000008 1.998917 -1.154076 1.154072 0.000004 0.000003 0.000003 9.109297 -0.518023 2.259904 1.051677 -9.282295 4.594392 -1.098645 0.138041 -24.818874 -0.000001 -0.000000 0.000000 -0.000005 0.000002 0.000001 9.533397 0.000013 0.000000 -0.502182 2.886845 -7.352111 -1.248662 -0.872201 -17.924547 -0.000002 0.000001 0.000002 -0.000001 -0.000000 0.000002 9.104490 -0.042987 -1.865106 -1.176990 9.288074 -21.340284 0.062317 -2.668174 -27.725842 -0.000001 0.000001 -0.000001 -0.000000 0.000000 -0.000000 8.077805 -0.486897 -3.806303 -2.067530 15.022072 -29.724737 0.236816 -5.991946 -25.513359 -0.000016 -0.000010 0.000010 0.000001 -0.000000 -0.000000 -8.207803 -6.751717 -1.599540 -27.499004 -19.891804 -7.377278 54.512775 1.261983 -2.924383 -22.081015 -3.059205 2.296832 -10.743020 -6.776938 8.502891 -0.000000 0.000000 0.000000 8.207796 -6.751703 -1.599554 -53.666934 -2.325018 17.118160 50.932147 -14.966454 3.223489 -4.990340 1.394616 -7.080455 -2.607759 -3.200818 0.826514 0.000000 0.000000 0.000000 
